<svg xmlns="http://www.w3.org/2000/svg" viewBox="0 0 96 96">
  <rect width="96" height="96" rx="22" fill="#302A26"/>
  <path d="M16 47C17.6 27.5 30.6 14 48 14c17.7 0 30.8 13.7 32 33" fill="none" stroke="#C8A66A" stroke-width="4.2" stroke-linecap="round"/>
  <path d="M48 14v8M25 22l5 6M71 22l-5 6M16 47h8M80 47h-8" stroke="#C8A66A" stroke-width="3" stroke-linecap="round"/>
  <path d="M14 50c13-2 24 1 34 10v25C38 75 27 72 14 74V50Z" fill="#F7F1E7"/>
  <path d="M82 50c-13-2-24 1-34 10v25c10-10 21-13 34-11V50Z" fill="#C8A66A"/>
  <path d="M65 49c-9-4-18 0-20 7-2 7 6 9 12 10 8 1 10 6 4 10-5 4-13 4-20 1" fill="none" stroke="#302A26" stroke-width="4" stroke-linecap="round"/>
  <path d="M48 24 40 56h16L48 24Z" fill="#F7F1E7" opacity=".95"/>
</svg>
